<svg xmlns="http://www.w3.org/2000/svg" width="48" height="120" viewBox="0 0 24 120" fill="none">
  <line x1="12" y1="112" x2="0" y2="100" stroke="#111827" stroke-width="2.5" stroke-linecap="round" />
  <line x1="12" y1="112" x2="0" y2="100" stroke="#1f2937" stroke-width="2.5" stroke-linecap="round" />
  <line x1="12" y1="112" x2="0" y2="100" stroke="#334155" stroke-width="2.5" stroke-linecap="round" />
  <line x1="12" y1="112" x2="0" y2="100" stroke="#475569" stroke-width="2.5" stroke-linecap="round" />
  <line x1="12" y1="112" x2="12" y2="100" stroke="#0f766e" stroke-width="2.5" stroke-linecap="round" />
  <line x1="12" y1="112" x2="12" y2="100" stroke="#0891b2" stroke-width="2.5" stroke-linecap="round" />
  <line x1="12" y1="112" x2="12" y2="100" stroke="#2563eb" stroke-width="2.5" stroke-linecap="round" />
  <line x1="12" y1="112" x2="12" y2="100" stroke="#4f46e5" stroke-width="2.5" stroke-linecap="round" />
  <line x1="12" y1="112" x2="12" y2="100" stroke="#7c3aed" stroke-width="2.5" stroke-linecap="round" />
  <line x1="12" y1="112" x2="12" y2="100" stroke="#9333ea" stroke-width="2.5" stroke-linecap="round" />
  <line x1="12" y1="112" x2="12" y2="100" stroke="#c026d3" stroke-width="2.5" stroke-linecap="round" />
  <line x1="12" y1="112" x2="12" y2="100" stroke="#db2777" stroke-width="2.5" stroke-linecap="round" />
  <line x1="12" y1="112" x2="12" y2="100" stroke="#e11d48" stroke-width="2.5" stroke-linecap="round" />
  <line x1="12" y1="112" x2="12" y2="100" stroke="#ef4444" stroke-width="2.5" stroke-linecap="round" />
  <line x1="12" y1="112" x2="12" y2="100" stroke="#f97316" stroke-width="2.5" stroke-linecap="round" />
  <line x1="12" y1="112" x2="12" y2="100" stroke="#f97316" stroke-width="2.5" stroke-linecap="round" />
  <line x1="12" y1="112" x2="12" y2="100" stroke="#f97316" stroke-width="2.5" stroke-linecap="round" />
</svg>