<svg xmlns="http://www.w3.org/2000/svg" width="24" height="120" viewBox="0 0 24 120" fill="none">
  <line x1="12" y1="112" x2="12" y2="8" stroke="#111827" stroke-width="2.5" stroke-linecap="round" />
  <line x1="12" y1="112" x2="12" y2="14" stroke="#1f2937" stroke-width="2.5" stroke-linecap="round" />
  <line x1="12" y1="112" x2="12" y2="20" stroke="#334155" stroke-width="2.5" stroke-linecap="round" />
  <line x1="12" y1="112" x2="12" y2="26" stroke="#475569" stroke-width="2.5" stroke-linecap="round" />
  <line x1="12" y1="112" x2="12" y2="32" stroke="#0f766e" stroke-width="2.5" stroke-linecap="round" />
  <line x1="12" y1="112" x2="12" y2="38" stroke="#0891b2" stroke-width="2.5" stroke-linecap="round" />
  <line x1="12" y1="112" x2="12" y2="44" stroke="#2563eb" stroke-width="2.5" stroke-linecap="round" />
  <line x1="12" y1="112" x2="12" y2="50" stroke="#4f46e5" stroke-width="2.5" stroke-linecap="round" />
  <line x1="12" y1="112" x2="12" y2="56" stroke="#7c3aed" stroke-width="2.5" stroke-linecap="round" />
  <line x1="12" y1="112" x2="12" y2="62" stroke="#9333ea" stroke-width="2.5" stroke-linecap="round" />
  <line x1="12" y1="112" x2="12" y2="68" stroke="#c026d3" stroke-width="2.5" stroke-linecap="round" />
  <line x1="12" y1="112" x2="12" y2="74" stroke="#db2777" stroke-width="2.5" stroke-linecap="round" />
  <line x1="12" y1="112" x2="12" y2="82" stroke="#e11d48" stroke-width="2.5" stroke-linecap="round" />
  <line x1="12" y1="112" x2="12" y2="90" stroke="#ef4444" stroke-width="2.5" stroke-linecap="round" />
  <line x1="12" y1="112" x2="12" y2="98" stroke="#f97316" stroke-width="2.5" stroke-linecap="round" />
</svg>