<?xml version="1.0" encoding="UTF-8" standalone="no"?>
<!DOCTYPE svg PUBLIC "-//W3C//DTD SVG 1.1//EN" "http://www.w3.org/Graphics/SVG/1.1/DTD/svg11.dtd">
<svg width="100%" height="100%" viewBox="0 0 1920 1600" version="1.1" xmlns="http://www.w3.org/2000/svg" xmlns:xlink="http://www.w3.org/1999/xlink" xml:space="preserve" xmlns:serif="http://www.serif.com/" style="fill-rule:evenodd;clip-rule:evenodd;stroke-linejoin:round;stroke-miterlimit:2;">
    <g transform="matrix(1,0,0,1,-4346.133458,0)">
        <g id="Mesa-de-trabajo1" serif:id="Mesa de trabajo1" transform="matrix(1,0,0,1,4346.133458,0)">
            <rect x="0" y="0" width="1920" height="1600" style="fill:none;"/>
            <clipPath id="_clip1">
                <rect x="0" y="0" width="1920" height="1600"/>
            </clipPath>
            <g clip-path="url(#_clip1)">
                <g transform="matrix(5.116065,0,0,0.577616,-0,-218.025405)">
                    <rect x="0" y="377.457" width="375.288" height="689.908" style="fill:rgb(10,221,255);"/>
                </g>
                <g transform="matrix(5.116065,0,0,0.577616,-0,180.476585)">
                    <rect x="0" y="377.457" width="375.288" height="689.908" style="fill:rgb(255,0,31);"/>
                </g>
                <g transform="matrix(5.116065,0,0,0.577616,-0,578.978576)">
                    <rect x="0" y="377.457" width="375.288" height="689.908"/>
                </g>
                <g transform="matrix(5.116065,0,0,0.586301,-0,974.202247)">
                    <rect x="0" y="377.457" width="375.288" height="689.908" style="fill:rgb(255,237,8);"/>
                </g>
            </g>
        </g>
    </g>
</svg>
