<?xml version="1.0" encoding="UTF-8" standalone="no"?>
<!DOCTYPE svg PUBLIC "-//W3C//DTD SVG 1.1//EN" "http://www.w3.org/Graphics/SVG/1.1/DTD/svg11.dtd">
<svg width="100%" height="100%" viewBox="0 0 1920 1600" version="1.1" xmlns="http://www.w3.org/2000/svg" xmlns:xlink="http://www.w3.org/1999/xlink" xml:space="preserve" xmlns:serif="http://www.serif.com/" style="fill-rule:evenodd;clip-rule:evenodd;stroke-linejoin:round;stroke-miterlimit:2;">
    <rect id="Mesa-de-trabajo1" serif:id="Mesa de trabajo1" x="0" y="0" width="1920" height="1600" style="fill:none;"/>
    <g id="Mesa-de-trabajo11" serif:id="Mesa de trabajo1">
        <g transform="matrix(1.125556,0,0,0.789864,397.762832,225.052217)">
            <path d="M365.937,854.133C333.006,950.703 263.491,1017.336 183.14,1017.336C71.042,1017.336 -19.967,887.647 -19.967,727.907C-19.967,568.168 71.042,438.479 183.14,438.479C263.491,438.479 333.006,505.112 365.937,601.682L365.937,438.479L386.247,438.479L386.247,1017.336L365.937,1017.336L365.937,854.133ZM365.937,727.907C365.937,584.142 284.028,467.422 183.14,467.422C82.252,467.422 0.343,584.142 0.343,727.907C0.343,871.673 82.252,988.393 183.14,988.393C284.028,988.393 365.937,871.673 365.937,727.907Z" style="fill:rgb(0, 0, 0);"/>
        </g>
        <g transform="matrix(1.125556,0,0,0.789864,-211.468498,225.052217)">
            <path d="M365.937,467.422L284.694,467.422L284.694,438.479L447.18,438.479L447.18,467.422L386.247,467.422L386.247,1017.336L365.937,1017.336L365.937,467.422Z" style="fill:rgb(0, 0, 0);"/>
        </g>
        <g transform="matrix(1.125556,0,0,0.394932,-97.164102,626.830505)">
            <rect x="365.937" y="438.479" width="20.311" height="578.856" style="fill:rgb(0, 0, 0);"/>
        </g>
        <g transform="matrix(0,1.125556,-0.394932,0,1502.331821,388.117697)">
            <path d="M386.247,441.337C488.884,470.38 569.044,717.178 569.044,1017.336C569.044,1336.815 478.035,1596.192 365.937,1596.192C253.764,1596.192 162.829,1337.029 162.829,1017.336L183.14,1017.336C183.14,1305.06 264.981,1538.306 365.937,1538.306C466.825,1538.306 548.733,1304.867 548.733,1017.336C548.733,749.177 477.645,528.339 386.247,499.545L386.247,1017.336L365.937,1017.336L365.937,441.321L386.247,441.337Z" style="fill:rgb(0, 0, 0);"/>
        </g>
        <g transform="matrix(2.981492,0,0,2.981492,-328.117914,-1655.605924)">
            <path d="M646.173,746.94C688.492,746.94 722.849,781.298 722.849,823.616C722.849,865.935 688.492,900.292 646.173,900.292C603.855,900.292 569.497,865.935 569.497,823.616C569.497,781.298 603.855,746.94 646.173,746.94ZM646.173,754.608C684.26,754.608 715.182,785.53 715.182,823.616C715.182,861.703 684.26,892.625 646.173,892.625C608.086,892.625 577.165,861.703 577.165,823.616C577.165,785.53 608.086,754.608 646.173,754.608Z" style="fill:rgb(0, 0, 0);"/>
        </g>
    </g>
</svg>
